<svg width="120" height="148" viewBox="0 0 120 148" fill="none" xmlns="http://www.w3.org/2000/svg">
<path d="M51.4193 58.6339C49.9964 63.6428 48.2501 72.482 46.8272 77.491C45.7276 81.3213 44.6281 85.2253 43.4639 88.982C43.1405 90.0869 43.3345 90.3079 44.3047 90.3079C46.5685 90.2343 48.8969 90.2343 51.2253 90.3079C52.1955 90.3816 52.6482 89.9396 53.101 89.0557C57.5638 80.5111 62.35 68.2097 66.8128 59.6651C67.3302 58.7075 67.8477 58.3392 68.8178 58.3392C73.4747 58.4129 78.1962 58.4129 82.853 58.3392C85.5695 58.3392 87.5746 56.7923 88.4801 54.1406C89.3856 51.4888 88.8681 48.7633 86.9925 46.7008C85.9576 45.5223 84.664 45.0066 83.1764 45.0066C78.5843 45.0066 73.9921 44.933 69.3999 45.0803C68.1064 45.0803 67.4596 44.5647 66.7481 43.3861C61.5092 33.4419 56.1409 23.4977 50.8372 13.5536C50.3845 12.6696 49.9317 12.3013 48.9616 12.3013C47.0212 12.375 45.1455 12.375 43.2052 12.3013C42.1703 12.2277 42.041 12.5223 42.3644 13.6272C45.2749 23.4977 48.1207 33.4419 50.9666 43.3861C51.096 43.9017 51.2253 44.4173 51.4193 45.0066C47.6033 45.0066 43.9166 45.0803 40.23 45.0066C35.7672 44.933 31.2397 45.154 26.7769 44.712C14.6173 43.6071 4.01006 32.9263 1.61696 19.3727C0.582106 13.2589 0.84082 7.2924 2.71649 1.39955C2.97521 0.441964 3.36328 0 4.33345 0C23.8663 0.0736606 43.3345 0 62.8674 0.0736606C72.4398 0.0736606 81.8829 1.39955 90.8085 5.45089C101.804 10.4598 110.6 18.5625 115.968 30.8638C119.073 38.0089 120.172 45.7432 119.978 53.6986C119.849 59.5914 119.073 65.4106 117.262 70.9352C113.058 83.4575 105.49 91.9284 94.3658 96.4954C86.9925 99.5155 79.2957 100.768 71.5343 101.283C61.0564 101.946 54.2067 101.283 43.7288 101.283C40.4237 101.283 38.8983 104.099 38.8983 107.645C38.963 121.862 38.613 131.705 38.613 145.848C38.613 147.174 38.3543 147.469 37.1901 147.542C25.2893 147.984 13.3884 147.616 1.4876 147.763C0.38807 147.763 0 147.542 0 146.143C0.0646784 132.073 0 118.078 0 104.009C0 96.8637 0 89.7923 0 82.6472C0 81.6896 0.129357 80.732 0.38807 79.8481C4.72152 67.6204 12.677 60.549 24.125 58.6339C24.1897 58.6339 24.3191 58.6339 24.3838 58.6339C33.2447 58.5602 42.041 58.5602 50.9019 58.4865C51.0313 58.4865 51.1606 58.5602 51.4193 58.6339Z" fill="#4A85F6"/>
</svg>
